<?xml version="1.0" standalone="no"?>
<!DOCTYPE svg PUBLIC "-//W3C//DTD SVG 20010904//EN"
 "http://www.w3.org/TR/2001/REC-SVG-20010904/DTD/svg10.dtd">
<svg version="1.0" xmlns="http://www.w3.org/2000/svg"
 width="70pt" height="70pt" viewBox="0 0 1280.000000 891.000000"
 preserveAspectRatio="xMidYMid meet">
<metadata>
Created by potrace 1.15, written by Peter Selinger 2001-2017
</metadata>
<g transform="translate(0.000000,891.000000) scale(0.100000,-0.100000)"
fill="#ffc107" stroke="none">
<path d="M6233 8896 c-39 -8 -102 -24 -140 -36 -83 -28 -235 -100 -231 -110 2
-5 44 -39 93 -77 l90 -70 33 -99 c17 -55 32 -105 32 -112 0 -9 -31 -12 -109
-12 l-109 0 -76 83 c-86 94 -73 97 -146 -30 -154 -267 -147 -564 21 -912 32
-68 63 -121 67 -117 4 4 35 69 68 144 l62 137 90 0 c50 0 92 -2 94 -5 2 -3 2
-58 0 -122 l-4 -117 -86 -58 c-95 -63 -233 -190 -287 -263 -181 -246 -191
-553 -30 -897 30 -63 42 -99 34 -103 -5 -4 -65 -10 -133 -14 -669 -35 -1497
-230 -2226 -523 l-214 -86 -31 39 c-93 120 -225 236 -412 362 -228 154 -361
310 -469 549 l-44 97 1 -246 c0 -321 -10 -413 -91 -863 -34 -190 -50 -325 -50
-433 l0 -79 -82 -55 c-220 -146 -480 -395 -638 -611 -47 -63 -88 -116 -91
-116 -3 -1 -38 37 -78 83 -152 178 -376 376 -568 505 -161 107 -546 311 -560
297 -2 -2 18 -48 45 -102 142 -283 252 -563 492 -1249 56 -159 127 -355 157
-435 54 -143 54 -146 58 -270 4 -141 18 -201 67 -275 40 -61 99 -103 191 -136
l72 -27 363 -699 362 -700 -16 -96 c-20 -116 -9 -217 32 -307 40 -89 125 -164
205 -184 23 -5 50 -47 173 -263 80 -142 150 -264 154 -270 6 -10 62 -2 237 33
1216 238 2205 366 3145 405 303 13 1140 7 1450 -10 937 -52 1830 -150 3024
-332 180 -28 329 -49 330 -47 2 2 66 140 143 308 127 275 144 306 170 314 87
27 117 42 161 81 92 83 135 221 113 365 -7 44 -18 95 -26 113 l-14 34 358 689
357 689 51 6 c139 17 236 86 268 190 22 75 29 206 16 319 l-10 94 115 331 c64
181 145 411 179 510 51 144 242 690 346 983 l18 53 -50 -43 c-106 -91 -257
-199 -447 -319 -287 -182 -394 -261 -516 -381 -60 -59 -110 -107 -111 -105
-13 29 -149 183 -249 283 -150 149 -251 232 -422 346 l-121 81 -6 236 c-6 259
-12 307 -87 686 -62 314 -71 372 -79 519 l-6 119 -54 -84 c-88 -136 -182 -221
-356 -324 -82 -48 -182 -112 -222 -142 -90 -68 -231 -209 -336 -335 -44 -54
-84 -98 -88 -98 -5 0 -53 17 -106 39 -597 238 -1422 427 -2183 501 -63 6 -125
13 -136 16 l-22 4 29 90 c64 200 76 446 29 625 -62 238 -220 442 -427 552 -83
44 -79 34 -89 201 l-6 112 93 0 94 0 91 -97 90 -97 47 65 c99 139 157 304 157
442 -1 160 -77 350 -209 517 l-19 24 -39 -79 c-21 -44 -42 -83 -48 -87 -5 -4
-56 -8 -112 -8 l-103 0 0 62 c0 59 3 65 70 170 l70 108 -42 26 c-62 39 -163
82 -258 110 -106 32 -279 40 -387 20z m-570 -3443 c-7 -130 11 -229 62 -347
19 -44 33 -81 32 -82 -1 -1 -39 14 -85 33 -144 59 -230 77 -382 77 -148 1
-192 -9 -303 -67 -71 -37 -173 -143 -220 -229 -75 -136 -112 -304 -112 -513 0
-219 26 -324 199 -798 127 -349 168 -491 202 -692 18 -108 24 -361 10 -457
l-7 -57 62 15 c208 48 386 189 483 381 74 147 106 298 115 548 7 179 9 193 34
242 68 132 157 120 203 -29 56 -184 -8 -530 -144 -778 -88 -162 -232 -326
-367 -419 -447 -309 -1031 -248 -1463 154 -95 89 -152 160 -208 260 -131 231
-173 517 -89 601 30 30 34 30 76 1 65 -43 129 -210 158 -407 52 -350 274 -541
680 -585 60 -7 64 -6 57 11 -36 91 -80 242 -98 340 -21 114 -22 144 -23 659 0
402 -4 554 -13 595 -87 374 -186 580 -355 736 -201 186 -459 222 -754 104 -41
-17 -76 -30 -78 -30 -3 0 -11 102 -20 266 l-5 101 153 51 c524 175 1034 297
1512 361 171 23 467 50 600 54 50 2 91 4 92 5 1 1 -1 -46 -4 -105z m1857 73
c609 -15 1351 -152 1855 -343 66 -25 132 -52 146 -59 l27 -13 -5 -178 c-3 -98
-7 -179 -8 -181 -2 -2 -38 21 -81 50 -103 70 -189 98 -297 98 -157 0 -285 -58
-418 -190 -188 -186 -323 -463 -384 -791 -13 -73 -15 -167 -13 -640 3 -543 3
-556 -20 -666 -12 -62 -38 -157 -57 -210 -18 -54 -32 -99 -31 -101 2 -1 48 4
102 12 384 57 591 257 634 614 25 206 103 377 183 406 30 10 74 -42 83 -99 28
-188 -68 -481 -221 -672 -146 -183 -386 -351 -603 -423 -133 -44 -201 -54
-367 -53 -141 0 -172 3 -260 26 -425 113 -740 463 -856 952 -19 81 -24 127
-24 245 0 133 2 149 24 194 26 52 70 86 113 86 38 0 96 -54 124 -115 22 -46
24 -64 24 -205 0 -497 119 -729 423 -830 45 -15 103 -30 128 -34 l46 -7 -8 43
c-13 69 -10 335 5 428 32 193 79 337 234 715 186 456 219 601 193 845 -39 359
-178 580 -422 667 -65 24 -89 27 -199 27 -141 0 -258 -26 -404 -89 -44 -19
-81 -33 -83 -31 -2 1 10 32 26 68 56 123 81 276 63 395 -5 35 -7 65 -4 68 2 2
32 2 66 0 33 -3 153 -7 266 -9z m3307 -1047 c242 -181 436 -363 569 -535 l46
-59 -88 -6 c-49 -4 -106 -14 -128 -23 -72 -32 -130 -103 -200 -248 -163 -335
-281 -703 -381 -1188 -19 -96 -49 -237 -66 -313 -17 -77 -29 -141 -26 -143 9
-9 129 29 204 66 107 53 176 127 263 286 35 65 88 154 117 198 29 44 53 85 53
91 0 17 61 86 71 80 16 -11 9 -103 -12 -162 -12 -32 -48 -112 -79 -178 -138
-284 -282 -431 -495 -503 -76 -25 -90 -27 -275 -27 l-195 0 -84 45 c-155 84
-274 197 -337 323 -101 199 -64 520 92 803 52 95 126 151 161 123 21 -18 13
-63 -31 -182 -88 -235 -127 -486 -96 -618 27 -113 93 -206 195 -274 80 -53 85
-53 85 -12 0 93 51 252 126 391 20 37 118 190 218 340 203 301 259 399 306
531 18 50 49 128 70 175 136 307 149 557 38 722 -60 90 -176 161 -309 189
l-48 10 23 52 c13 29 34 73 45 100 12 26 25 47 28 47 3 0 67 -45 140 -101z
m-8548 -48 l40 -79 -74 -30 c-202 -82 -318 -218 -346 -404 -20 -134 16 -304
110 -519 27 -63 54 -132 60 -154 26 -97 139 -296 327 -576 114 -171 215 -333
243 -393 52 -108 91 -242 91 -313 0 -24 4 -43 9 -43 26 0 140 101 178 158 112
167 120 384 27 700 -32 110 -42 198 -28 236 11 28 51 18 82 -20 37 -45 113
-222 142 -329 12 -45 24 -126 27 -185 7 -138 -12 -226 -74 -350 -41 -82 -62
-109 -153 -201 -150 -150 -191 -176 -310 -190 -55 -6 -134 -8 -189 -4 -353 25
-562 196 -753 614 -46 101 -53 124 -53 180 0 40 4 66 12 68 14 5 45 -28 69
-75 11 -20 38 -66 60 -102 23 -36 65 -112 94 -170 68 -135 116 -206 181 -264
56 -50 149 -102 235 -130 53 -17 246 -57 252 -52 1 2 -24 41 -57 87 -142 197
-228 404 -311 749 -139 577 -188 733 -301 951 -53 102 -98 152 -165 185 -47
23 -68 27 -140 27 -46 0 -84 3 -84 6 0 12 350 352 470 457 112 99 283 243 287
244 2 0 21 -36 42 -79z"/>
</g>
</svg>
